<svg xmlns="http://www.w3.org/2000/svg" width="1024" height="1024" viewBox="0 0 1024 1024">
  <rect width="1024" height="1024" fill="#FAF8F5"/>
  <path fill="#FF6600" d="M512 112
    C 560 220, 690 300, 736 440
    C 782 580, 730 730, 640 812
    C 592 856, 550 876, 512 884
    C 474 876, 432 856, 384 812
    C 294 730, 242 580, 288 440
    C 318 350, 380 300, 412 220
    C 446 280, 470 340, 466 400
    C 520 330, 528 220, 512 112 Z"/>
  <path fill="#FAF8F5" d="M512 548
    C 566 606, 610 676, 602 748
    C 596 806, 556 846, 512 858
    C 468 846, 428 806, 422 748
    C 414 676, 458 606, 512 548 Z"/>
</svg>
